<svg width="185" height="74" viewBox="0 0 185 74" fill="none" xmlns="http://www.w3.org/2000/svg">
<rect x="105" y="2" width="80" height="70" rx="20" fill="#9E76B4"/>
<path d="M18.096 55.48C12.688 55.48 8.56 54.104 5.712 51.352C2.896 48.568 1.488 44.712 1.488 39.784C1.488 34.632 2.864 30.648 5.616 27.832C8.4 25.016 12.544 23.608 18.048 23.608C19.936 23.608 21.616 23.752 23.088 24.04C24.592 24.328 26.032 24.712 27.408 25.192V31.96C24.624 30.808 21.696 30.232 18.624 30.232C15.424 30.232 13.072 31 11.568 32.536C10.096 34.072 9.36 36.488 9.36 39.784C9.36 42.92 10.144 45.224 11.712 46.696C13.28 48.168 15.616 48.904 18.72 48.904C20.224 48.904 21.712 48.776 23.184 48.52C24.656 48.232 26.08 47.8 27.456 47.224V54.04C26.112 54.488 24.688 54.84 23.184 55.096C21.68 55.352 19.984 55.48 18.096 55.48ZM31.3699 55V24.088H39.0019L47.4019 41.224L55.7539 24.088H63.3379V55H55.6099V37.24L49.5139 49.72H45.2419L39.0979 37.24V55H31.3699ZM82.1816 55.48C79.3016 55.48 76.7896 55.016 74.6456 54.088C72.5336 53.16 70.8856 51.784 69.7016 49.96C68.5496 48.136 67.9736 45.896 67.9736 43.24V24.088H75.7016V42.52C75.7016 44.664 76.2616 46.264 77.3816 47.32C78.5016 48.376 80.1016 48.904 82.1816 48.904C84.2616 48.904 85.8616 48.376 86.9816 47.32C88.1016 46.264 88.6616 44.664 88.6616 42.52V24.088H96.3896V43.24C96.3896 45.896 95.7976 48.136 94.6136 49.96C93.4616 51.784 91.8136 53.16 89.6696 54.088C87.5576 55.016 85.0616 55.48 82.1816 55.48Z" fill="#9E76B4"/>
<path d="M116.448 53V22.088H131.664C134.128 22.088 136.16 22.584 137.76 23.576C139.36 24.536 140.544 25.848 141.312 27.512C142.112 29.176 142.512 31.048 142.512 33.128C142.512 35.24 142.064 37.112 141.168 38.744C140.272 40.376 138.992 41.656 137.328 42.584C135.696 43.48 133.744 43.928 131.472 43.928H124.176V53H116.448ZM124.176 37.976H129.744C131.376 37.976 132.592 37.528 133.392 36.632C134.224 35.736 134.64 34.552 134.64 33.08C134.64 31.48 134.256 30.248 133.488 29.384C132.752 28.488 131.584 28.04 129.984 28.04H124.176V37.976ZM140.754 53L152.562 22.088H160.914L172.722 53H164.658L161.874 45.992H151.554L148.818 53H140.754ZM152.61 40.28H160.818L156.69 29.528L152.61 40.28Z" fill="white"/>
</svg>
